<svg width="46" height="40" viewBox="0 0 46 40" fill="none" xmlns="http://www.w3.org/2000/svg">
<path id="Combined Shape Copy 3" fill-rule="evenodd" clip-rule="evenodd" d="M27.2269 33.3081C33.0732 36.1191 38.0203 36.9222 40.0439 35.1152L40.0441 35.1151C42.0677 33.308 41.1684 28.8906 37.7955 23.8709C36.4462 25.4771 34.6471 27.2845 32.8484 28.8906C31.0497 30.4972 29.2506 31.9025 27.2269 33.3081ZM16.6586 25.8788C18.6823 27.8867 20.9309 29.4929 23.1795 30.8985C25.4281 29.6937 27.6766 27.8867 29.4754 25.8788C31.724 24.0718 33.5227 22.0639 35.0968 20.056C33.5227 18.249 31.724 16.2411 29.4754 14.2332C27.4517 12.2253 25.2031 10.6191 22.9545 9.21346C20.9309 10.6191 18.6823 12.2253 16.4337 14.2332C14.41 16.0402 12.3864 18.0481 10.8122 20.056C12.3864 22.0639 14.41 24.0718 16.6586 25.8788ZM8.33866 23.6702C4.51629 30.0954 4.74083 33.7095 6.31501 35.1152L6.31477 35.1153C8.11364 36.9223 13.2856 36.3201 19.1318 33.3083C17.333 32.1035 15.309 30.497 13.5103 28.8908C11.4866 27.0838 9.91284 25.4772 8.33866 23.6702ZM19.132 6.80384C10.3623 2.3867 6.98943 4.39459 6.31501 4.99681L6.31485 4.99696C4.74067 6.20169 4.29119 9.81575 8.3385 16.4419C9.36608 15.0655 10.6544 13.8057 12.005 12.485C12.4278 12.0715 12.8567 11.6521 13.2856 11.2213C15.0837 9.61542 17.1065 8.21057 19.1297 6.80544L19.132 6.80384ZM38.0203 16.4418C41.1682 11.2213 42.0676 6.80384 40.0439 4.99681L40.0438 4.99667C39.1444 4.19358 35.7715 2.58706 27.4517 7.00456C29.2504 8.20937 31.2745 9.8159 33.0732 11.4221C34.8723 13.0282 36.4461 14.6348 38.0203 16.4418ZM23.3248 4.11566C25.8752 2.74491 36.8013 -3.12732 43.1919 2.18584C47.4641 5.59925 46.1152 12.6269 40.4934 20.0561C45.8899 27.4853 47.0142 34.3122 42.9669 37.9263C41.3929 39.3316 35.7714 42.7452 22.9544 35.7175C10.3622 42.7452 4.51613 39.332 2.94196 37.9263C0.243886 35.5168 -1.33029 29.8947 5.41549 20.0561C-1.10535 10.619 0.243565 4.59516 3.1669 2.18584C6.98951 -1.42851 14.8596 -0.424564 23.1794 4.19373C23.2243 4.16966 23.2728 4.1436 23.3248 4.11566ZM18.6716 20.056C18.6716 22.4713 20.4746 24.0812 23.1794 24.0812C25.4333 24.0812 27.6871 22.4713 27.6871 20.056C27.6871 17.6407 25.8842 16.0308 23.1794 16.0308C20.4746 16.0308 18.6716 17.6407 18.6716 20.056Z" fill="#110F24"/>
</svg>
